<svg width="17" height="16" viewBox="0 0 17 16" fill="none" xmlns="http://www.w3.org/2000/svg">
<g id="weight">
<path id="Vector" d="M3.78333 13.0001H12.55L11.5 5.66675H4.83333L3.78333 13.0001ZM8.16667 4.66675C8.45556 4.66675 8.69444 4.56953 8.88333 4.37508C9.07222 4.18064 9.16667 3.94453 9.16667 3.66675C9.16667 3.37786 9.07222 3.13897 8.88333 2.95008C8.69444 2.76119 8.45556 2.66675 8.16667 2.66675C7.88889 2.66675 7.65278 2.76119 7.45833 2.95008C7.26389 3.13897 7.16667 3.37786 7.16667 3.66675C7.16667 3.94453 7.26389 4.18064 7.45833 4.37508C7.65278 4.56953 7.88889 4.66675 8.16667 4.66675ZM9.9 4.66675H11.5C11.7556 4.66675 11.9778 4.7473 12.1667 4.90841C12.3556 5.06953 12.4667 5.27786 12.5 5.53341L13.5333 12.8667C13.5778 13.1667 13.5028 13.4306 13.3083 13.6584C13.1139 13.8862 12.8611 14.0001 12.55 14.0001H3.78333C3.47222 14.0001 3.21945 13.8862 3.025 13.6584C2.83056 13.4306 2.75556 13.1667 2.8 12.8667L3.83333 5.53341C3.86667 5.27786 3.97778 5.06953 4.16667 4.90841C4.35556 4.7473 4.57778 4.66675 4.83333 4.66675H6.43333C6.34444 4.51119 6.27778 4.35286 6.23333 4.19175C6.18889 4.03064 6.16667 3.85564 6.16667 3.66675C6.16667 3.11119 6.36111 2.63897 6.75 2.25008C7.13889 1.86119 7.61111 1.66675 8.16667 1.66675C8.72222 1.66675 9.19444 1.86119 9.58333 2.25008C9.97222 2.63897 10.1667 3.11119 10.1667 3.66675C10.1667 3.85564 10.1444 4.03064 10.1 4.19175C10.0556 4.35286 9.98889 4.51119 9.9 4.66675ZM3.78333 13.0001H12.55H3.78333Z" fill="#1D1D1D"/>
</g>
</svg>
